<svg xmlns="http://www.w3.org/2000/svg" xmlns:xlink="http://www.w3.org/1999/xlink" width="397" zoomAndPan="magnify" viewBox="0 0 297.75 419.249985" height="559" preserveAspectRatio="xMidYMid meet" version="1.0"><defs><clipPath id="e17912baea"><path d="M 1 8 L 297.359375 8 L 297.359375 412 L 1 412 Z M 1 8 " clip-rule="nonzero"/></clipPath></defs><g clip-path="url(#e17912baea)"><path fill="#000000" d="M 222.902344 25.59375 C 217.261719 22.582031 211.445312 19.949219 205.460938 17.691406 C 199.472656 15.4375 193.367188 13.582031 187.136719 12.125 C 180.910156 10.667969 174.613281 9.621094 168.246094 8.984375 C 161.882812 8.347656 155.503906 8.125 149.109375 8.320312 C 142.539062 8.121094 135.988281 8.359375 129.449219 9.035156 C 122.910156 9.714844 116.449219 10.828125 110.0625 12.375 C 103.671875 13.921875 97.417969 15.886719 91.292969 18.273438 C 85.167969 20.660156 79.230469 23.445312 73.480469 26.628906 C 70.703125 28.265625 67.980469 29.988281 65.316406 31.800781 C 62.648438 33.617188 60.046875 35.515625 57.503906 37.5 C 54.964844 39.484375 52.492188 41.550781 50.089844 43.699219 C 47.683594 45.847656 45.351562 48.070312 43.09375 50.371094 C 40.835938 52.671875 38.65625 55.046875 36.554688 57.492188 C 34.453125 59.9375 32.433594 62.445312 30.496094 65.023438 C 28.5625 67.601562 26.710938 70.242188 24.949219 72.941406 C 23.1875 75.640625 21.515625 78.394531 19.933594 81.203125 C 18.351562 84.011719 16.863281 86.871094 15.46875 89.777344 C 14.078125 92.6875 12.78125 95.636719 11.582031 98.628906 C 10.382812 101.621094 9.28125 104.652344 8.285156 107.714844 C 7.285156 110.78125 6.386719 113.875 5.589844 117 C 4.792969 120.125 4.101562 123.269531 3.511719 126.441406 C 2.921875 129.609375 2.441406 132.796875 2.0625 136 C 1.679688 139.199219 1.40625 142.410156 1.238281 145.628906 C 1.074219 148.851562 1.011719 152.070312 1.054688 155.296875 C 2.804688 213.929688 40.167969 268.035156 73.402344 315.117188 C 96.894531 348.5625 122.128906 380.640625 149.109375 411.34375 C 195.980469 358.246094 240.953125 300.007812 273.324219 236.863281 C 286.917969 210.335938 297.207031 183.664062 297.207031 154.101562 C 297.214844 150.859375 297.113281 147.621094 296.90625 144.386719 C 296.699219 141.152344 296.382812 137.929688 295.964844 134.714844 C 295.542969 131.5 295.019531 128.304688 294.390625 125.125 C 293.761719 121.945312 293.027344 118.792969 292.191406 115.660156 C 291.351562 112.53125 290.414062 109.429688 289.371094 106.359375 C 288.332031 103.289062 287.191406 100.257812 285.949219 97.265625 C 284.707031 94.269531 283.371094 91.320312 281.9375 88.414062 C 280.503906 85.507812 278.972656 82.652344 277.351562 79.847656 C 275.730469 77.039062 274.015625 74.289062 272.214844 71.597656 C 270.410156 68.90625 268.519531 66.273438 266.542969 63.703125 C 264.570312 61.136719 262.511719 58.632812 260.371094 56.203125 C 258.230469 53.769531 256.011719 51.40625 253.714844 49.121094 C 251.417969 46.832031 249.050781 44.621094 246.609375 42.492188 C 244.167969 40.359375 241.660156 38.308594 239.082031 36.34375 C 236.507812 34.375 233.871094 32.496094 231.171875 30.703125 C 228.472656 28.910156 225.714844 27.207031 222.902344 25.59375 Z M 149.109375 278.203125 C 147.136719 278.203125 145.164062 278.15625 143.195312 278.058594 C 141.226562 277.960938 139.257812 277.816406 137.292969 277.621094 C 135.332031 277.429688 133.375 277.1875 131.421875 276.898438 C 129.472656 276.609375 127.527344 276.273438 125.59375 275.886719 C 123.660156 275.503906 121.734375 275.070312 119.820312 274.589844 C 117.90625 274.109375 116.007812 273.585938 114.117188 273.011719 C 112.230469 272.441406 110.359375 271.820312 108.5 271.15625 C 106.644531 270.492188 104.804688 269.78125 102.980469 269.027344 C 101.15625 268.273438 99.355469 267.472656 97.570312 266.628906 C 95.789062 265.785156 94.027344 264.898438 92.285156 263.96875 C 90.546875 263.039062 88.832031 262.066406 87.140625 261.054688 C 85.445312 260.039062 83.78125 258.984375 82.140625 257.886719 C 80.5 256.792969 78.886719 255.65625 77.304688 254.480469 C 75.71875 253.304688 74.164062 252.09375 72.640625 250.839844 C 71.113281 249.589844 69.621094 248.300781 68.160156 246.976562 C 66.695312 245.652344 65.269531 244.289062 63.875 242.894531 C 62.480469 241.5 61.117188 240.074219 59.792969 238.609375 C 58.46875 237.148438 57.179688 235.65625 55.929688 234.128906 C 54.679688 232.605469 53.464844 231.050781 52.289062 229.464844 C 51.113281 227.882812 49.980469 226.269531 48.882812 224.628906 C 47.785156 222.988281 46.730469 221.320312 45.71875 219.628906 C 44.703125 217.9375 43.730469 216.222656 42.800781 214.480469 C 41.871094 212.742188 40.984375 210.980469 40.140625 209.195312 C 39.296875 207.414062 38.5 205.609375 37.742188 203.789062 C 36.988281 201.964844 36.277344 200.125 35.613281 198.265625 C 34.949219 196.410156 34.332031 194.535156 33.757812 192.648438 C 33.183594 190.761719 32.660156 188.859375 32.179688 186.945312 C 31.699219 185.03125 31.269531 183.109375 30.882812 181.171875 C 30.5 179.238281 30.160156 177.296875 29.871094 175.34375 C 29.582031 173.390625 29.339844 171.433594 29.148438 169.472656 C 28.953125 167.507812 28.808594 165.542969 28.710938 163.570312 C 28.617188 161.601562 28.566406 159.628906 28.566406 157.65625 C 28.566406 155.683594 28.617188 153.710938 28.710938 151.742188 C 28.808594 149.769531 28.953125 147.804688 29.148438 145.839844 C 29.339844 143.875 29.582031 141.917969 29.871094 139.96875 C 30.160156 138.015625 30.5 136.074219 30.882812 134.136719 C 31.269531 132.203125 31.699219 130.277344 32.179688 128.367188 C 32.660156 126.453125 33.183594 124.550781 33.757812 122.664062 C 34.332031 120.773438 34.949219 118.902344 35.613281 117.042969 C 36.277344 115.1875 36.988281 113.347656 37.742188 111.523438 C 38.5 109.703125 39.296875 107.898438 40.140625 106.117188 C 40.984375 104.332031 41.871094 102.570312 42.800781 100.832031 C 43.730469 99.089844 44.703125 97.375 45.71875 95.683594 C 46.730469 93.988281 47.785156 92.324219 48.882812 90.683594 C 49.980469 89.042969 51.113281 87.429688 52.289062 85.847656 C 53.464844 84.261719 54.679688 82.707031 55.929688 81.183594 C 57.179688 79.65625 58.46875 78.164062 59.792969 76.703125 C 61.117188 75.238281 62.480469 73.8125 63.875 72.417969 C 65.269531 71.019531 66.695312 69.660156 68.160156 68.335938 C 69.621094 67.011719 71.113281 65.722656 72.636719 64.472656 C 74.164062 63.21875 75.71875 62.007812 77.304688 60.832031 C 78.886719 59.65625 80.5 58.519531 82.140625 57.425781 C 83.78125 56.328125 85.445312 55.273438 87.140625 54.257812 C 88.832031 53.246094 90.546875 52.273438 92.285156 51.34375 C 94.027344 50.414062 95.789062 49.527344 97.570312 48.683594 C 99.355469 47.839844 101.15625 47.039062 102.980469 46.285156 C 104.804688 45.53125 106.644531 44.820312 108.5 44.15625 C 110.359375 43.492188 112.230469 42.871094 114.117188 42.300781 C 116.007812 41.726562 117.90625 41.199219 119.820312 40.722656 C 121.734375 40.242188 123.660156 39.808594 125.59375 39.425781 C 127.527344 39.039062 129.472656 38.703125 131.421875 38.414062 C 133.375 38.125 135.332031 37.882812 137.292969 37.6875 C 139.257812 37.496094 141.226562 37.351562 143.195312 37.253906 C 145.164062 37.15625 147.136719 37.109375 149.109375 37.109375 C 151.082031 37.109375 153.054688 37.15625 155.023438 37.253906 C 156.996094 37.351562 158.960938 37.496094 160.925781 37.6875 C 162.886719 37.882812 164.847656 38.125 166.796875 38.414062 C 168.75 38.703125 170.691406 39.039062 172.625 39.425781 C 174.5625 39.808594 176.484375 40.242188 178.398438 40.722656 C 180.3125 41.199219 182.214844 41.726562 184.101562 42.300781 C 185.988281 42.871094 187.863281 43.492188 189.71875 44.15625 C 191.578125 44.820312 193.417969 45.53125 195.238281 46.285156 C 197.0625 47.039062 198.867188 47.839844 200.648438 48.683594 C 202.433594 49.527344 204.195312 50.414062 205.933594 51.34375 C 207.671875 52.273438 209.390625 53.246094 211.082031 54.257812 C 212.773438 55.273438 214.441406 56.328125 216.078125 57.425781 C 217.71875 58.519531 219.332031 59.65625 220.917969 60.832031 C 222.5 62.007812 224.054688 63.21875 225.582031 64.472656 C 227.105469 65.722656 228.601562 67.011719 230.0625 68.335938 C 231.523438 69.660156 232.953125 71.019531 234.347656 72.417969 C 235.742188 73.8125 237.101562 75.238281 238.425781 76.703125 C 239.75 78.164062 241.039062 79.65625 242.289062 81.183594 C 243.542969 82.707031 244.753906 84.261719 245.929688 85.847656 C 247.105469 87.429688 248.242188 89.042969 249.335938 90.683594 C 250.433594 92.324219 251.488281 93.988281 252.503906 95.683594 C 253.515625 97.375 254.488281 99.089844 255.417969 100.832031 C 256.347656 102.570312 257.234375 104.332031 258.078125 106.117188 C 258.921875 107.898438 259.722656 109.703125 260.476562 111.523438 C 261.230469 113.347656 261.941406 115.1875 262.605469 117.042969 C 263.269531 118.902344 263.890625 120.773438 264.460938 122.664062 C 265.035156 124.550781 265.5625 126.453125 266.039062 128.367188 C 266.519531 130.277344 266.953125 132.203125 267.335938 134.136719 C 267.722656 136.074219 268.058594 138.015625 268.347656 139.96875 C 268.636719 141.917969 268.878906 143.878906 269.070312 145.839844 C 269.265625 147.804688 269.410156 149.769531 269.507812 151.742188 C 269.605469 153.710938 269.652344 155.683594 269.652344 157.65625 C 269.652344 159.628906 269.605469 161.601562 269.507812 163.570312 C 269.410156 165.542969 269.265625 167.507812 269.070312 169.472656 C 268.878906 171.433594 268.636719 173.390625 268.347656 175.34375 C 268.058594 177.296875 267.722656 179.238281 267.335938 181.171875 C 266.953125 183.109375 266.519531 185.03125 266.039062 186.945312 C 265.5625 188.859375 265.035156 190.761719 264.460938 192.648438 C 263.890625 194.535156 263.269531 196.410156 262.605469 198.265625 C 261.941406 200.125 261.230469 201.964844 260.476562 203.789062 C 259.722656 205.609375 258.921875 207.414062 258.078125 209.195312 C 257.234375 210.980469 256.347656 212.742188 255.417969 214.480469 C 254.488281 216.222656 253.515625 217.9375 252.503906 219.628906 C 251.488281 221.320312 250.433594 222.988281 249.335938 224.628906 C 248.242188 226.269531 247.105469 227.882812 245.929688 229.464844 C 244.753906 231.050781 243.542969 232.605469 242.289062 234.128906 C 241.039062 235.65625 239.75 237.148438 238.425781 238.609375 C 237.101562 240.074219 235.742188 241.5 234.347656 242.894531 C 232.953125 244.289062 231.523438 245.652344 230.0625 246.976562 C 228.601562 248.300781 227.105469 249.589844 225.582031 250.839844 C 224.054688 252.09375 222.5 253.304688 220.917969 254.480469 C 219.332031 255.65625 217.71875 256.792969 216.078125 257.886719 C 214.441406 258.984375 212.773438 260.039062 211.082031 261.054688 C 209.390625 262.066406 207.671875 263.039062 205.933594 263.96875 C 204.195312 264.898438 202.433594 265.785156 200.648438 266.628906 C 198.863281 267.472656 197.0625 268.273438 195.238281 269.027344 C 193.417969 269.78125 191.578125 270.492188 189.71875 271.15625 C 187.863281 271.820312 185.988281 272.441406 184.101562 273.011719 C 182.214844 273.585938 180.3125 274.109375 178.398438 274.589844 C 176.484375 275.070312 174.5625 275.503906 172.625 275.886719 C 170.691406 276.273438 168.75 276.609375 166.796875 276.898438 C 164.847656 277.1875 162.886719 277.429688 160.925781 277.621094 C 158.960938 277.816406 156.996094 277.960938 155.023438 278.058594 C 153.054688 278.15625 151.082031 278.203125 149.109375 278.203125 Z M 149.109375 278.203125 " fill-opacity="1" fill-rule="nonzero"/></g><path fill="#000000" d="M 127.519531 173.847656 L 127.519531 138.585938 C 127.519531 138.585938 201.644531 130.335938 220.796875 169.695312 C 220.894531 169.929688 220.964844 170.167969 221.003906 170.417969 C 221.039062 170.667969 221.046875 170.917969 221.023438 171.171875 C 220.996094 171.421875 220.941406 171.667969 220.851562 171.902344 C 220.765625 172.140625 220.648438 172.363281 220.507812 172.570312 C 220.363281 172.777344 220.195312 172.964844 220.003906 173.128906 C 219.8125 173.292969 219.601562 173.433594 219.375 173.542969 C 219.148438 173.65625 218.914062 173.738281 218.664062 173.789062 C 218.417969 173.839844 218.167969 173.859375 217.917969 173.847656 Z M 127.519531 173.847656 " fill-opacity="1" fill-rule="nonzero"/><path fill="#000000" d="M 120.324219 152.4375 C 120.324219 153.382812 120.230469 154.320312 120.046875 155.246094 C 119.863281 156.171875 119.589844 157.074219 119.226562 157.945312 C 118.867188 158.820312 118.421875 159.648438 117.898438 160.433594 C 117.371094 161.222656 116.777344 161.949219 116.109375 162.617188 C 115.441406 163.285156 114.710938 163.882812 113.925781 164.40625 C 113.140625 164.929688 112.3125 165.375 111.4375 165.734375 C 110.566406 166.097656 109.664062 166.371094 108.738281 166.554688 C 107.8125 166.738281 106.875 166.832031 105.929688 166.832031 C 104.984375 166.832031 104.050781 166.738281 103.121094 166.554688 C 102.195312 166.371094 101.296875 166.097656 100.421875 165.734375 C 99.550781 165.375 98.71875 164.929688 97.933594 164.40625 C 97.148438 163.882812 96.421875 163.285156 95.753906 162.617188 C 95.085938 161.949219 94.488281 161.222656 93.964844 160.433594 C 93.4375 159.648438 92.996094 158.820312 92.632812 157.945312 C 92.269531 157.074219 92 156.171875 91.8125 155.246094 C 91.628906 154.320312 91.539062 153.382812 91.539062 152.4375 C 91.539062 151.492188 91.628906 150.558594 91.8125 149.628906 C 92 148.703125 92.269531 147.804688 92.632812 146.929688 C 92.996094 146.058594 93.4375 145.226562 93.964844 144.441406 C 94.488281 143.65625 95.085938 142.929688 95.753906 142.261719 C 96.421875 141.59375 97.148438 140.996094 97.933594 140.46875 C 98.71875 139.945312 99.550781 139.5 100.421875 139.140625 C 101.296875 138.777344 102.195312 138.503906 103.121094 138.320312 C 104.050781 138.136719 104.984375 138.042969 105.929688 138.042969 C 106.875 138.042969 107.8125 138.136719 108.738281 138.320312 C 109.664062 138.503906 110.566406 138.777344 111.4375 139.140625 C 112.3125 139.5 113.140625 139.945312 113.925781 140.46875 C 114.710938 140.996094 115.441406 141.59375 116.109375 142.261719 C 116.777344 142.929688 117.371094 143.65625 117.898438 144.441406 C 118.421875 145.226562 118.867188 146.058594 119.226562 146.929688 C 119.589844 147.804688 119.863281 148.703125 120.046875 149.628906 C 120.230469 150.558594 120.324219 151.492188 120.324219 152.4375 Z M 120.324219 152.4375 " fill-opacity="1" fill-rule="nonzero"/><path fill="#000000" d="M 73.546875 101.878906 C 74.253906 101.878906 74.957031 101.949219 75.652344 102.085938 C 76.347656 102.226562 77.023438 102.429688 77.675781 102.703125 C 78.332031 102.972656 78.953125 103.304688 79.542969 103.699219 C 80.132812 104.09375 80.679688 104.542969 81.179688 105.042969 C 81.679688 105.542969 82.128906 106.089844 82.523438 106.679688 C 82.914062 107.265625 83.246094 107.890625 83.519531 108.542969 C 83.789062 109.199219 83.996094 109.875 84.132812 110.570312 C 84.273438 111.265625 84.339844 111.96875 84.339844 112.675781 L 84.339844 209.480469 L 62.75 209.480469 L 62.75 112.675781 C 62.75 111.96875 62.820312 111.265625 62.957031 110.570312 C 63.097656 109.875 63.300781 109.199219 63.574219 108.542969 C 63.84375 107.890625 64.175781 107.265625 64.570312 106.679688 C 64.964844 106.089844 65.410156 105.542969 65.914062 105.042969 C 66.414062 104.542969 66.960938 104.09375 67.546875 103.699219 C 68.136719 103.304688 68.761719 102.972656 69.414062 102.703125 C 70.070312 102.429688 70.746094 102.226562 71.441406 102.085938 C 72.136719 101.949219 72.835938 101.878906 73.546875 101.878906 Z M 73.546875 101.878906 " fill-opacity="1" fill-rule="nonzero"/><path fill="#000000" d="M 224.675781 145.0625 C 225.382812 145.0625 226.085938 145.128906 226.78125 145.269531 C 227.476562 145.40625 228.148438 145.613281 228.804688 145.882812 C 229.460938 146.15625 230.082031 146.488281 230.671875 146.878906 C 231.261719 147.273438 231.804688 147.722656 232.308594 148.222656 C 232.808594 148.722656 233.253906 149.269531 233.648438 149.859375 C 234.042969 150.449219 234.375 151.070312 234.648438 151.726562 C 234.917969 152.378906 235.125 153.054688 235.261719 153.75 C 235.398438 154.445312 235.46875 155.148438 235.46875 155.855469 L 235.46875 209.832031 L 213.878906 209.832031 L 213.878906 155.855469 C 213.878906 155.148438 213.949219 154.445312 214.085938 153.75 C 214.226562 153.054688 214.429688 152.378906 214.699219 151.726562 C 214.972656 151.070312 215.304688 150.449219 215.699219 149.859375 C 216.09375 149.269531 216.539062 148.722656 217.039062 148.222656 C 217.542969 147.722656 218.085938 147.273438 218.675781 146.878906 C 219.265625 146.488281 219.886719 146.15625 220.542969 145.882812 C 221.199219 145.613281 221.871094 145.40625 222.566406 145.269531 C 223.261719 145.128906 223.964844 145.0625 224.675781 145.0625 Z M 224.675781 145.0625 " fill-opacity="1" fill-rule="nonzero"/><path fill="#000000" d="M 84.339844 195.324219 L 84.339844 173.847656 L 213.878906 173.847656 L 213.878906 195.324219 Z M 84.339844 195.324219 " fill-opacity="1" fill-rule="nonzero"/></svg>